<?xml version="1.0" encoding="UTF-8"?>
<svg version="1.1" xmlns="http://www.w3.org/2000/svg" width="500" height="500">
<path d="M0 0 C34.65 0 69.3 0 105 0 C103.26055588 5.79814706 101.55955504 11.43188598 99.51953125 17.1015625 C99.07802734 18.33261719 98.63652344 19.56367188 98.18164062 20.83203125 C97.7253177 22.09637484 97.26893682 23.36069752 96.8125 24.625 C96.34416219 25.92829961 95.87606163 27.2316845 95.40820312 28.53515625 C94.27445598 31.69094727 93.1383377 34.8458626 92 38 C93.48826294 37.9685791 93.48826294 37.9685791 95.0065918 37.93652344 C98.75074349 37.86314405 102.49483426 37.81785164 106.23950195 37.78027344 C107.84833526 37.76037762 109.45709842 37.73325071 111.06567383 37.69824219 C127.33307286 37.35352946 140.95057547 39.9825069 153.47265625 51.21875 C162.5003309 60.50263578 167.56104541 72.03620782 168 85 C167.55740946 98.72030686 164.11827803 109.60128293 155 120 C154.47664062 120.6290625 153.95328125 121.258125 153.4140625 121.90625 C145.50608022 130.70146931 132.98626776 135.42460392 121.35177612 136.2628479 C117.17508438 136.34535997 113.00880404 136.33840824 108.83203125 136.29296875 C107.30076009 136.28736027 105.76948347 136.28309611 104.23820496 136.28010559 C100.24495074 136.26875514 96.25203382 136.23937493 92.25891113 136.20599365 C88.1693986 136.17507897 84.07983055 136.16155495 79.99023438 136.14648438 C71.99333632 136.11449369 63.99671034 136.06341916 56 136 C55.81321182 136.63527115 55.62642365 137.2705423 55.43397522 137.92506409 C53.88341558 143.1533284 52.24765869 148.32228895 50.43359375 153.46484375 C50.19855637 154.13257813 49.96351898 154.8003125 49.72135925 155.48828125 C48.96304638 157.63908596 48.20079183 159.78845756 47.4375 161.9375 C47.17499451 162.67767365 46.91248901 163.41784729 46.64202881 164.18045044 C45.02666594 168.73249779 43.40408776 173.28192572 41.77642822 177.82958984 C41.03616931 179.89889311 40.29798165 181.96892536 39.56005859 184.0390625 C38.26147827 187.67666011 36.94494201 191.30759523 35.625 194.9375 C35.24529053 196.00025146 34.86558105 197.06300293 34.47436523 198.15795898 C28.36771378 214.78361301 20.16469017 226.29870873 3.89453125 233.99609375 C-8.71762813 238.94157463 -22.67195335 237.54116006 -35.0625 232.875 C-47.59608312 227.30632252 -56.07434079 217.84190802 -61.22265625 205.203125 C-68.32810285 185.06507533 -59.99782158 166.65545736 -53.1875 147.6875 C-52.42109356 145.54020173 -51.65514922 143.39273848 -50.88964844 141.24511719 C-48.96169998 135.84088362 -47.02695154 130.43911591 -45.08953857 125.03826904 C-44.07287659 122.20322244 -43.05774789 119.36763393 -42.04345703 116.53173828 C-38.04382819 105.3491282 -34.02746272 94.17261361 -30 83 C-29.71491577 82.20897888 -29.42983154 81.41795776 -29.1361084 80.60296631 C-18.57106129 51.28973328 -18.57106129 51.28973328 -13.65991211 37.84887695 C-13.33901611 36.97062256 -13.01812012 36.09236816 -12.6875 35.1875 C-12.38142822 34.34985107 -12.07535645 33.51220215 -11.76000977 32.64916992 C-8.93053859 24.87249651 -6.21573868 17.0565592 -3.52416992 9.23120117 C-3.20810791 8.31443604 -2.8920459 7.3976709 -2.56640625 6.453125 C-2.28740479 5.64004883 -2.00840332 4.82697266 -1.72094727 3.98925781 C-1 2 -1 2 0 0 Z " fill="#EBB22C" transform="translate(289,236)"/>
<path d="M0 0 C0.87083965 -0.00085442 1.7416793 -0.00170885 2.63890803 -0.00258917 C5.55003407 -0.00423318 8.46110219 0.00125975 11.3722229 0.00672913 C13.46175129 0.00701126 15.55127978 0.00685276 17.64080811 0.00628662 C23.30970218 0.00599966 28.97857511 0.01188015 34.64746428 0.01886058 C40.57318229 0.02511085 46.49890078 0.02569924 52.42462158 0.02688599 C63.64420488 0.02999436 74.86377844 0.03820111 86.08335745 0.04823548 C98.85713376 0.05941193 111.63091053 0.06491093 124.4046905 0.06993091 C150.67984342 0.08038412 176.95498769 0.09797402 203.23013306 0.12025452 C202.16946411 7.81739807 202.16946411 7.81739807 201.00942993 11.02455139 C200.76345062 11.71488464 200.51747131 12.4052179 200.26403809 13.11647034 C199.99503693 13.84990662 199.72603577 14.5833429 199.44888306 15.33900452 C199.16320465 16.13463806 198.87752625 16.93027161 198.58319092 17.75001526 C197.63857352 20.37578707 196.68445218 22.99799481 195.73013306 25.62025452 C195.06598829 27.45989239 194.40242488 29.29974023 193.7394104 31.13978577 C192.32577395 35.05915669 190.90793021 38.97697086 189.48696899 42.89369202 C187.14472614 49.35130857 184.81604053 55.81377682 182.48794556 62.27650452 C180.94433859 66.55799416 179.39993981 70.83919764 177.85513306 75.12025452 C177.47929077 76.16205872 177.10344849 77.20386292 176.71621704 78.27723694 C175.65194021 81.22541682 174.58588397 84.17294645 173.51919556 87.12025452 C173.20008209 88.00475281 172.88096863 88.8892511 172.55218506 89.80055237 C172.2597995 90.60730408 171.96741394 91.41405579 171.66616821 92.24525452 C171.41162872 92.94908264 171.15708923 93.65291077 170.89483643 94.37806702 C170.23013306 96.12025452 170.23013306 96.12025452 169.23013306 98.12025452 C148.44013306 98.45025452 127.65013306 98.78025452 106.23013306 99.12025452 C100.28669233 115.51072688 100.28669233 115.51072688 94.35488892 131.90541077 C81.38943605 167.63573917 81.38943605 167.63573917 71.23013306 177.12025452 C70.71708618 177.62814514 70.20403931 178.13603577 69.67544556 178.65931702 C60.94011981 186.70371305 48.83622658 189.970111 37.23013306 190.12025452 C22.44917902 189.13849373 10.46391419 183.73999414 0.23013306 173.02650452 C-9.64368413 161.28006683 -11.91745567 147.75440039 -11.09994507 132.9176178 C-10.24818572 125.69908331 -7.37823961 118.96597157 -4.64633179 112.28187561 C-3.45430192 109.341978 -2.39266907 106.35977063 -1.33236694 103.37025452 C-0.81288544 101.95309159 -0.29271917 100.53617731 0.23013306 99.12025452 C-0.80885132 98.95009827 -1.84783569 98.77994202 -2.91830444 98.60462952 C-18.21179741 95.99663624 -29.83856001 91.67888863 -40.13314819 79.44056702 C-49.72888415 65.83706545 -50.56286984 51.30952702 -48.76986694 35.12025452 C-47.23792455 29.09936464 -44.30568289 24.17142015 -40.76986694 19.12025452 C-40.29291382 18.38291077 -39.81596069 17.64556702 -39.32455444 16.88587952 C-33.14473799 8.52277461 -22.1142248 2.65274424 -12.09142113 0.56136417 C-8.034672 0.02261902 -4.08709063 -0.01474485 0 0 Z " fill="#EBB22C" transform="translate(48.769866943359375,273.87974548339844)"/>
<path d="M0 0 C0.77214844 0.55300781 1.54429687 1.10601562 2.33984375 1.67578125 C14.00727355 10.98978077 18.45627353 23.78250769 20.2734375 38.1640625 C20.86424278 48.84400412 16.56661823 60.11485506 13 70 C14.26972656 69.95359375 15.53945313 69.9071875 16.84765625 69.859375 C34.02362326 69.42034053 49.04510861 71.53600639 62.1875 83.625 C74.13561775 96.22747714 75.90421762 109.54442042 75.56640625 126.171875 C74.89872682 138.36078971 69.42892543 148.01891307 60.33984375 156.17578125 C45.78301149 167.524764 31.78365506 168.58141352 13.98339844 168.45410156 C11.76490805 168.45297181 9.54641616 168.45360944 7.32792664 168.45587158 C1.33489408 168.45701466 -4.65781529 168.43357109 -10.65077305 168.40557575 C-16.92477828 168.38049425 -23.19879172 168.37821478 -29.47283936 168.37347412 C-39.99382714 168.36247229 -50.51471555 168.33752311 -61.03564453 168.30175781 C-71.86669328 168.26497683 -82.69770991 168.23669498 -93.52880859 168.21972656 C-94.53219058 168.21815022 -94.53219058 168.21815022 -95.55584291 168.21654204 C-98.91201112 168.21132145 -102.26817957 168.20626672 -105.62434816 168.20129442 C-133.41631412 168.15953498 -161.20814874 168.08922143 -189 168 C-188.44111685 163.86417421 -187.88289709 160.15423353 -186.3125 156.28125 C-185.95196533 155.37246094 -185.59143066 154.46367187 -185.2199707 153.52734375 C-184.81738037 152.52832031 -184.41479004 151.52929688 -184 150.5 C-178.06290335 135.44245505 -172.61485102 120.21399742 -167.15429688 104.97851562 C-166.80094772 103.99532349 -166.44759857 103.01213135 -166.08354187 101.99914551 C-165.43004968 100.180494 -164.77844984 98.36116045 -164.12947083 96.54089355 C-160.92287395 87.61963034 -157.44056038 78.84715526 -154 70 C-133.87 69.67 -113.74 69.34 -93 69 C-91.329375 64.441875 -89.65875 59.88375 -87.9375 55.1875 C-86.27832031 50.67553711 -86.27832031 50.67553711 -85.57489014 48.76332092 C-83.66221958 43.56148313 -81.76214053 38.35693331 -79.921875 33.12890625 C-77.01857488 24.91913757 -74.19805353 17.09191799 -69 10 C-68.49082031 9.29875 -67.98164063 8.5975 -67.45703125 7.875 C-51.33431804 -12.34540991 -20.44326951 -14.71780688 0 0 Z " fill="#89D2DE" transform="translate(425,46)"/>
<path d="M0 0 C1.40932097 1.02334478 2.80611581 2.06424657 4.1875 3.125 C4.80238281 3.56457031 5.41726562 4.00414062 6.05078125 4.45703125 C15.09598636 11.4164241 20.10830115 22.11249912 22.1875 33.125 C23.74729396 45.69140455 20.92438618 55.5516001 16.33398438 67.18212891 C14.64153405 71.52642112 13.06322827 75.91064112 11.47241211 80.29296875 C10.0815094 84.11965234 8.67792711 87.94145046 7.26953125 91.76171875 C6.76643589 93.12678929 6.2633435 94.49186093 5.76025391 95.85693359 C5.50375061 96.55284607 5.24724731 97.24875854 4.98297119 97.96575928 C3.88208785 100.95401601 2.78299352 103.94292958 1.68388367 106.93183899 C-5.56284807 126.63792257 -12.84367428 146.33112696 -20.16751099 166.00868225 C-22.12640268 171.27414077 -24.07823295 176.54218759 -26.02761841 181.81117249 C-27.50735877 185.80971887 -28.98929209 189.80745071 -30.47149658 193.80508423 C-31.19637848 195.76173817 -31.92030285 197.71874714 -32.64324951 199.67611694 C-33.65027945 202.40220375 -34.66069037 205.12701458 -35.671875 207.8515625 C-35.97539886 208.67579208 -36.27892273 209.50002167 -36.59164429 210.34922791 C-38.69857427 216.01107427 -38.69857427 216.01107427 -39.8125 217.125 C-41.15322817 217.22027037 -42.49892503 217.2468877 -43.84303284 217.24525452 C-44.71106537 217.24662918 -45.5790979 217.24800385 -46.47343445 217.24942017 C-47.43296524 217.24582489 -48.39249603 217.24222961 -49.38110352 217.23852539 C-50.38586731 217.23867142 -51.3906311 217.23881744 -52.42584229 217.2389679 C-55.76438517 217.2382683 -59.10287305 217.23047374 -62.44140625 217.22265625 C-64.74926218 217.22079224 -67.05711851 217.21936826 -69.36497498 217.21836853 C-75.45267826 217.21454204 -81.54035786 217.20471065 -87.62805176 217.19366455 C-93.83471354 217.18345323 -100.04137913 217.17887151 -106.24804688 217.17382812 C-118.43620835 217.1630885 -130.62435221 217.14601052 -142.8125 217.125 C-142.17785292 212.3186429 -141.27006774 208.17068922 -139.52734375 203.640625 C-139.07939453 202.45855469 -138.63144531 201.27648437 -138.16992188 200.05859375 C-137.70134766 198.84300781 -137.23277344 197.62742188 -136.75 196.375 C-135.81720762 193.94439501 -134.88860966 191.51217487 -133.96484375 189.078125 C-133.55226318 188.00723633 -133.13968262 186.93634766 -132.71459961 185.83300781 C-131.65447593 183.12634689 -131.65447593 183.12634689 -131.8125 180.125 C-132.71790527 180.11098145 -132.71790527 180.11098145 -133.64160156 180.09667969 C-151.18944897 179.75549013 -165.85600643 178.26359048 -179.32421875 165.80078125 C-188.89157815 155.7273797 -193.55550488 144.24032784 -193.91015625 130.28125 C-193.40447158 118.1448179 -190.10382968 108.77959985 -182.8125 99.125 C-182.13574219 98.18333984 -182.13574219 98.18333984 -181.4453125 97.22265625 C-174.2325137 87.91121826 -162.17016697 83.07940769 -150.8125 81.125 C-148.88109833 81.01449016 -146.94677883 80.94970056 -145.01245117 80.91967773 C-143.87164597 80.89973251 -142.73084076 80.87978729 -141.5554657 80.85923767 C-140.33446671 80.84252518 -139.11346771 80.82581268 -137.85546875 80.80859375 C-135.96831902 80.7774221 -135.96831902 80.7774221 -134.04304504 80.74562073 C-130.71077714 80.69139535 -127.37849761 80.64112055 -124.04614258 80.59277344 C-120.64073445 80.54238916 -117.2354118 80.48679177 -113.83007812 80.43164062 C-107.15762033 80.32463301 -100.48509826 80.22283476 -93.8125 80.125 C-93.60253891 79.54665405 -93.39257782 78.96830811 -93.17625427 78.37243652 C-90.95928845 72.26894957 -88.73494498 66.16818607 -86.5065918 60.06884766 C-85.67956038 57.80226417 -84.85431639 55.53502755 -84.03100586 53.26708984 C-69.91097866 14.38336754 -69.91097866 14.38336754 -59.8125 5.125 C-58.78189453 4.14273438 -58.78189453 4.14273438 -57.73046875 3.140625 C-42.00161697 -10.51633721 -17.22999223 -10.94882449 0 0 Z " fill="#88D2DE" transform="translate(237.8125,34.875)"/>
<path d="M0 0 C33.99 0.33 67.98 0.66 103 1 C104.26355097 4.79065292 103.53048383 6.01828542 102.18359375 9.73828125 C101.7558667 10.93291992 101.32813965 12.12755859 100.88745117 13.35839844 C100.40456463 14.67659008 99.92123459 15.99461933 99.4375 17.3125 C98.94253544 18.67850099 98.44816292 20.04471663 97.9543457 21.41113281 C96.88603839 24.36098297 95.81119549 27.30835665 94.73242188 30.25439453 C93.23397456 34.35037105 91.75537728 38.45325199 90.28123474 42.55802917 C89.05785026 45.95942886 87.82587038 49.35767303 86.59182739 52.75521851 C85.99516047 54.40125245 85.40108854 56.04822966 84.80978394 57.69619751 C78.02957185 76.55949894 70.84682245 91.02979643 51.89453125 99.99609375 C39.28237187 104.94157463 25.32804665 103.54116006 12.9375 98.875 C0.40391688 93.30632252 -8.07434079 83.84190802 -13.22265625 71.203125 C-21.90712788 46.58984863 -8.41980893 23.31639397 0 0 Z " fill="#DF1958" transform="translate(241,370)"/>
<path d="M0 0 C33.66 0 67.32 0 102 0 C101.26635333 5.86917335 100.40594204 10.345464 98.33984375 15.69921875 C98.07426666 16.40847504 97.80868958 17.11773132 97.5350647 17.84848022 C96.67780493 20.13150424 95.80816675 22.40955905 94.9375 24.6875 C94.34108123 26.26400173 93.74530017 27.84074486 93.15014648 29.41772461 C91.97514411 32.52784797 90.79530771 35.63607602 89.61230469 38.74316406 C88.23859182 42.3583777 86.8966797 45.9842941 85.5703125 49.6171875 C79.80011045 65.35533558 73.52483077 79.39802218 57.8125 87.5 C44.56649673 93.48260962 31.80220715 94.3320241 17.859375 90.03125 C5.96512357 85.51753407 -3.9002496 77.44442096 -9.50390625 65.90234375 C-16.57521512 49.32203833 -15.39961194 34.01680524 -8.82421875 17.4140625 C-8.21762015 15.9420999 -7.60967454 14.47069123 -7 13 C-6.32904297 11.27910156 -6.32904297 11.27910156 -5.64453125 9.5234375 C-4.79088387 7.33538826 -3.91616516 5.16237739 -3 3 C-2.34 3 -1.68 3 -1 3 C-0.67 2.01 -0.34 1.02 0 0 Z " fill="#62C09F" transform="translate(52,371)"/>
<path d="M0 0 C1.40932097 1.02334478 2.80611581 2.06424657 4.1875 3.125 C4.80238281 3.56457031 5.41726562 4.00414062 6.05078125 4.45703125 C15.09598636 11.4164241 20.10830115 22.11249912 22.1875 33.125 C23.88124999 46.7706148 20.22004716 57.54849917 15.1875 70.125 C13.5375 74.415 11.8875 78.705 10.1875 83.125 C-23.4725 82.795 -57.1325 82.465 -91.8125 82.125 C-92.93760107 76.49949464 -92.93760107 76.49949464 -91.4765625 72.58862305 C-91.15872803 71.71968918 -90.84089355 70.85075531 -90.51342773 69.95549011 C-90.15837158 69.02529556 -89.80331543 68.09510101 -89.4375 67.13671875 C-89.075354 66.1607222 -88.71320801 65.18472565 -88.34008789 64.17915344 C-87.56901917 62.10837067 -86.79191877 60.03982537 -86.00927734 57.97338867 C-84.83295804 54.8665331 -83.67456312 51.75349527 -82.51953125 48.63867188 C-69.66470246 14.15757951 -69.66470246 14.15757951 -59.8125 5.125 C-59.12542969 4.47015625 -58.43835938 3.8153125 -57.73046875 3.140625 C-42.00161697 -10.51633721 -17.22999223 -10.94882449 0 0 Z " fill="#62C09F" transform="translate(237.8125,34.875)"/>
<path d="M0 0 C0.77214844 0.55300781 1.54429687 1.10601562 2.33984375 1.67578125 C14.00727355 10.98978077 18.45627353 23.78250769 20.2734375 38.1640625 C20.84488247 48.49402919 17.05867218 60.61740156 13 70 C10.7060839 71.14695805 9.43662851 71.12338652 6.88717651 71.12025452 C6.02618347 71.12162918 5.16519043 71.12300385 4.27810669 71.12442017 C3.33152191 71.12082489 2.38493713 71.11722961 1.40966797 71.11352539 C-0.08306641 71.11374443 -0.08306641 71.11374443 -1.60595703 71.1139679 C-4.90659743 71.11326931 -8.20718192 71.10547944 -11.5078125 71.09765625 C-13.79181894 71.09579188 -16.07582578 71.09436807 -18.35983276 71.09336853 C-24.38011778 71.08954487 -30.40037879 71.07971586 -36.4206543 71.06866455 C-42.56038081 71.05844718 -48.70011119 71.05387021 -54.83984375 71.04882812 C-66.89323973 71.03809348 -78.94661787 71.02101885 -91 71 C-91.98761382 67.53109209 -91.87861851 65.81275539 -90.64819336 62.39013672 C-90.3271312 61.48174042 -90.00606903 60.57334412 -89.67527771 59.63742065 C-89.3170845 58.66136871 -88.9588913 57.68531677 -88.58984375 56.6796875 C-88.22532608 55.66584991 -87.86080841 54.65201233 -87.48524475 53.60745239 C-86.70942508 51.45870647 -85.92814 49.31192726 -85.1418457 47.16699219 C-83.95166657 43.91372329 -82.78422249 40.65295303 -81.61914062 37.390625 C-80.86074086 35.29898342 -80.10101586 33.20782179 -79.33984375 31.1171875 C-78.82380836 29.67132767 -78.82380836 29.67132767 -78.29734802 28.19625854 C-72.56658193 12.70873344 -63.90671978 1.05418299 -48.7265625 -6.06640625 C-32.65217158 -12.44073368 -13.8894211 -9.99946791 0 0 Z " fill="#DF1958" transform="translate(425,46)"/>
<path d="M0 0 C34.65 0 69.3 0 105 0 C102.70523796 7.64920679 100.28334744 15.14740583 97.61108398 22.66235352 C96.92836757 24.58826213 96.25621452 26.51767558 95.58398438 28.44726562 C95.15279297 29.66220703 94.72160156 30.87714844 94.27734375 32.12890625 C93.69327759 33.78515015 93.69327759 33.78515015 93.09741211 35.47485352 C92 38 92 38 90 39 C88.61885993 39.09163082 87.23338794 39.12193843 85.84921265 39.12025452 C84.97980545 39.12162918 84.11039825 39.12300385 83.21464539 39.12442017 C81.78074211 39.11902725 81.78074211 39.11902725 80.31787109 39.11352539 C78.81050636 39.11374443 78.81050636 39.11374443 77.27268982 39.1139679 C73.93958402 39.11326929 70.60653358 39.10547933 67.2734375 39.09765625 C64.96701081 39.09579188 62.66058372 39.09436807 60.35415649 39.09336853 C54.27468783 39.08954482 48.19524294 39.07971576 42.11578369 39.06866455 C35.91573407 39.0584473 29.71568061 39.05387024 23.515625 39.04882812 C11.34373954 39.03809338 -0.82812826 39.02101869 -13 39 C-12.31127319 35.43132083 -11.44041209 32.06411311 -10.29296875 28.61328125 C-9.7834668 27.0809082 -9.7834668 27.0809082 -9.26367188 25.51757812 C-8.90853516 24.45990234 -8.55339844 23.40222656 -8.1875 22.3125 C-7.84396484 21.27416016 -7.50042969 20.23582031 -7.14648438 19.16601562 C-6.80294922 18.13798828 -6.45941406 17.10996094 -6.10546875 16.05078125 C-5.79762451 15.12950439 -5.48978027 14.20822754 -5.17260742 13.2590332 C-3.56647207 8.79509383 -1.76191218 4.40478046 0 0 Z " fill="#DF1B58" transform="translate(289,236)"/>
<path d="M0 0 C0.85395355 -0.00274933 1.7079071 -0.00549866 2.58773804 -0.0083313 C3.98819618 0.00245453 3.98819618 0.00245453 5.41694641 0.01345825 C6.89526947 0.01302017 6.89526947 0.01302017 8.40345764 0.01257324 C11.66626236 0.01396837 14.92883971 0.02953831 18.19160461 0.04519653 C20.45176061 0.04892601 22.71191822 0.05177329 24.97207642 0.05377197 C30.92497714 0.06141356 36.87778049 0.08106663 42.8306427 0.10317993 C48.9034239 0.12362701 54.9762208 0.13277126 61.04902649 0.14285278 C72.96768909 0.16431197 84.88627939 0.1984543 96.80488586 0.24050903 C98.19793093 4.41964423 96.60321975 7.2180041 95.09394836 11.15457153 C94.66256058 12.30993912 94.66256058 12.30993912 94.22245789 13.48864746 C93.61298041 15.11589354 92.99906169 16.74148203 92.38105774 18.36550903 C91.43218524 20.85946549 90.4962797 23.35798086 89.56269836 25.85769653 C88.96969732 27.43610312 88.37597193 29.01423779 87.78144836 30.59207153 C87.49911346 31.34308136 87.21677856 32.09409119 86.92588806 32.86785889 C84.92246423 38.12293067 84.92246423 38.12293067 83.80488586 39.24050903 C82.4641577 39.3357794 81.11846083 39.36239673 79.77435303 39.36076355 C78.9063205 39.36213821 78.03828796 39.36351288 77.14395142 39.3649292 C76.18442062 39.36133392 75.22488983 39.35773865 74.23628235 39.35403442 C73.23151855 39.35418045 72.22675476 39.35432648 71.19154358 39.35447693 C67.85300069 39.35377733 64.51451282 39.34598277 61.17597961 39.33816528 C58.86812368 39.33630127 56.56026736 39.33487729 54.25241089 39.33387756 C48.1647076 39.33005108 42.077028 39.32021968 35.98933411 39.30917358 C29.78267233 39.29896227 23.57600674 39.29438054 17.36933899 39.28933716 C5.18117751 39.27859753 -7.00696634 39.26151955 -19.19511414 39.24050903 C-18.25183998 32.09092198 -16.07019159 25.73268499 -13.58476257 19.00491333 C-12.81733514 16.92046085 -12.06826283 14.82999382 -11.32011414 12.73855591 C-10.83422899 11.40937943 -10.34728701 10.08058871 -9.85917664 8.75222778 C-9.42041199 7.5504187 -8.98164734 6.34860962 -8.52958679 5.11038208 C-6.56127716 0.87740006 -4.43059903 -0.0110077 0 0 Z " fill="#63C09F" transform="translate(114.19511413574219,212.75949096679688)"/>
<path d="M0 0 C0 1.32 0 2.64 0 4 C-0.99 4.33 -1.98 4.66 -3 5 C-3 4.34 -3 3.68 -3 3 C-70.98 2.67 -138.96 2.34 -209 2 C-209 1.67 -209 1.34 -209 1 C-184.55522323 0.86900023 -160.11044342 0.73858366 -135.6656599 0.60884857 C-124.3138076 0.54858783 -112.96195634 0.4881411 -101.61010742 0.42724609 C-91.70805457 0.37412875 -81.80599988 0.32137099 -71.90394288 0.26903296 C-66.66799264 0.24134573 -61.43204344 0.21348665 -56.19609642 0.18519592 C-51.25250661 0.15849056 -46.30891445 0.13227152 -41.36532021 0.10640144 C-39.5656233 0.09690219 -37.76592726 0.08723586 -35.9662323 0.07737541 C-23.97736584 0.01181922 -11.98904336 -0.01115914 0 0 Z " fill="#E8A810" transform="translate(252,274)"/>
<path d="M0 0 C1.41278939 4.23836817 -0.35956994 7.00315571 -2 10.9375 C-5.16125981 18.75924023 -8.03479415 26.64717177 -10.77734375 34.62475586 C-11.05449219 35.42921143 -11.33164063 36.23366699 -11.6171875 37.0625 C-11.86065918 37.77535156 -12.10413086 38.48820312 -12.35498047 39.22265625 C-13 41 -13 41 -14 43 C19 43 52 43 86 43 C86 43.33 86 43.66 86 44 C52.34 44 18.68 44 -16 44 C-14.87446783 36.12127478 -14.87446783 36.12127478 -13.83251953 33.10009766 C-13.60202911 32.4231485 -13.3715387 31.74619934 -13.13406372 31.04873657 C-12.88615082 30.34429413 -12.63823792 29.63985168 -12.3828125 28.9140625 C-12.12498993 28.17167328 -11.86716736 27.42928406 -11.60153198 26.66439819 C-11.05853686 25.10857729 -10.51210889 23.55395058 -9.96240234 22.00048828 C-9.12163801 19.61546292 -8.30070486 17.22418252 -7.48046875 14.83203125 C-6.94910796 13.31728991 -6.41659669 11.80295155 -5.8828125 10.2890625 C-5.63894806 9.57247467 -5.39508362 8.85588684 -5.14382935 8.11758423 C-4.51759964 6.37733521 -3.76821816 4.68240041 -3 3 C-2.01 2.67 -1.02 2.34 0 2 C0 1.34 0 0.68 0 0 Z " fill="#E99A2D" transform="translate(258,327)"/>
<path d="M0 0 C0.66 0.33 1.32 0.66 2 1 C-0.68350052 12.35327143 -4.8712672 23.11030022 -9 34 C-9.66 33.67 -10.32 33.34 -11 33 C-10.34534158 27.53271753 -8.56924418 22.73466652 -6.625 17.625 C-6.32078125 16.81289063 -6.0165625 16.00078125 -5.703125 15.1640625 C-4.80692169 12.774187 -3.90371594 10.38704286 -3 8 C-1.9984432 5.33391477 -0.99932915 2.66692135 0 0 Z " fill="#EAA723" transform="translate(275,275)"/>
<path d="M0 0 C0.33 0 0.66 0 1 0 C0.4661333 6.29818416 -1.05145474 11.57582899 -3.375 17.4375 C-3.67921875 18.25154297 -3.9834375 19.06558594 -4.296875 19.90429688 C-4.59851563 20.67708984 -4.90015625 21.44988281 -5.2109375 22.24609375 C-5.61771729 23.29301392 -5.61771729 23.29301392 -6.03271484 24.36108398 C-7 26 -7 26 -10 27 C-7.97471357 20.58659298 -5.59879236 14.36966883 -3.06982422 8.14233398 C-1.97429537 5.44406112 -0.92127849 2.76383546 0 0 Z " fill="#6BBE93" transform="translate(153,371)"/>
<path d="M0 0 C1.27133789 0.00966797 1.27133789 0.00966797 2.56835938 0.01953125 C3.8899707 0.04466797 3.8899707 0.04466797 5.23828125 0.0703125 C6.57729492 0.08384766 6.57729492 0.08384766 7.94335938 0.09765625 C10.14610439 0.12121502 12.34830713 0.15410921 14.55078125 0.1953125 C14.55078125 1.5153125 14.55078125 2.8353125 14.55078125 4.1953125 C13.56078125 4.5253125 12.57078125 4.8553125 11.55078125 5.1953125 C11.55078125 4.5353125 11.55078125 3.8753125 11.55078125 3.1953125 C5.28078125 2.8653125 -0.98921875 2.5353125 -7.44921875 2.1953125 C-4.2960709 0.09321393 -3.58818794 -0.0481636 0 0 Z " fill="#E9AC1F" transform="translate(237.44921875,273.8046875)"/>
<path d="M0 0 C1.35304209 4.05912626 0.15216503 5.77149591 -1.4375 9.6875 C-1.91058594 10.86699219 -2.38367188 12.04648437 -2.87109375 13.26171875 C-3.24363281 14.16535156 -3.61617188 15.06898438 -4 16 C-5.1171875 14.328125 -5.1171875 14.328125 -6 12 C-5.3203125 9.421875 -5.3203125 9.421875 -4.125 6.75 C-3.73570312 5.85796875 -3.34640625 4.9659375 -2.9453125 4.046875 C-2.63335937 3.37140625 -2.32140625 2.6959375 -2 2 C-1.34 2 -0.68 2 0 2 C0 1.34 0 0.68 0 0 Z " fill="#EAAD1E" transform="translate(264,310)"/>
<path d="M0 0 C5.28 0 10.56 0 16 0 C11.52903787 3.3532216 10.3623272 3.47037958 5 3 C2.0625 2 2.0625 2 0 1 C0 0.67 0 0.34 0 0 Z " fill="#DD0D4F" transform="translate(266,470)"/>
<path d="M0 0 C1.11841676 3.35525029 0.91538821 3.97089854 -0.3125 7.125 C-0.57675781 7.82882812 -0.84101563 8.53265625 -1.11328125 9.2578125 C-2 11 -2 11 -4 12 C-3.71905418 10.1858073 -3.42493567 8.37364999 -3.125 6.5625 C-2.96257812 5.55316406 -2.80015625 4.54382813 -2.6328125 3.50390625 C-2.42398438 2.67761719 -2.21515625 1.85132813 -2 1 C-1.34 0.67 -0.68 0.34 0 0 Z " fill="#DD0E4E" transform="translate(229,408)"/>
</svg>
